<svg aria-hidden="true" style="width:0;height:0;position:absolute;overflow:hidden" xmlns="http://www.w3.org/2000/svg"><defs><symbol id="cross" viewBox="0 0 32 32"><path stroke-linejoin="round" stroke-linecap="round" stroke-width="3.2" d="M24 8 8 24M8 8l16 16"/></symbol><symbol id="youtube" viewBox="0 0 32 32"><path d="M24.24 5.989c-1.36-.08-4.16-.16-8.4-.16h-.56c-4.08 0-6.811.08-8.16.24-1.84.16-3.12.64-3.84 1.28-.64.56-1.12 1.6-1.28 2.96-.08.88-.16 2.72-.16 5.52v.4c0 2.64.08 4.48.24 5.36.24 1.28.64 2.24 1.44 2.8.8.64 2.16 1.04 4.08 1.2 1.36.08 4.16.16 8.4.16h.56c4.08 0 6.8-.08 8.16-.24 1.84-.16 3.12-.64 3.84-1.28.64-.56 1.12-1.6 1.28-2.96.08-.88.16-2.72.16-5.52v-.4c0-2.64-.08-4.48-.24-5.36-.24-1.28-.64-2.24-1.44-2.8-.8-.64-2.16-1.04-4.08-1.2zm-3.12 9.84-8.8 5.28v-10.56l8.8 5.28z"/></symbol><symbol id="facebook" viewBox="0 0 32 32"><path d="M19.52 4.64h.949v3.6H19.28c-.48 0-.96 0-1.2.24s-.24.48-.24 1.04v1.28h2.629v3.04H17.84v13.2h-4.08V13.76H11.6v-3.04h2.16V9.68c0-1.76.24-3.04.709-3.6.731-1.04 2.171-1.52 4.331-1.52.24.08.48.08.72.08z"/></symbol><symbol id="instagram" viewBox="0 0 32 32"><path d="M28.709 10.754a9.289 9.289 0 0 0-.594-3.154 6.574 6.574 0 0 0-3.737-3.737 9.611 9.611 0 0 0-3.109-.594c-1.371-.057-1.806-.08-5.28-.08-3.463 0-3.909 0-5.269.08a9.643 9.643 0 0 0-3.109.594A6.574 6.574 0 0 0 3.874 7.6a9.34 9.34 0 0 0-.606 3.109c-.057 1.36-.08 1.794-.08 5.269 0 3.463 0 3.909.08 5.257a9.345 9.345 0 0 0 .606 3.109 6.542 6.542 0 0 0 3.737 3.737 9.665 9.665 0 0 0 3.109.64c1.371.057 1.806.08 5.28.08 3.463 0 3.909 0 5.269-.08a9.643 9.643 0 0 0 3.109-.594 6.574 6.574 0 0 0 3.737-3.737 9.036 9.036 0 0 0 .594-3.109c.069-1.371.091-1.794.091-5.269-.011-3.463-.011-3.909-.091-5.257zm-12.72 11.772c-3.634 0-6.571-2.937-6.571-6.56s2.937-6.56 6.571-6.56c3.623 0 6.571 2.937 6.571 6.56s-2.949 6.56-6.571 6.56zm6.834-11.84a1.524 1.524 0 1 1 0-3.051c.846 0 1.531.686 1.531 1.531s-.686 1.52-1.531 1.52z"/><path d="M19.989 15.966c0 2.217-1.794 4-4 4a4 4 0 1 1 0-8c2.206 0 4 1.794 4 4z"/></symbol><symbol id="burger" viewBox="0 0 64 32"><path stroke-linejoin="round" stroke-linecap="round" stroke-width="4" d="M56 20.66H8M56 10H8"/></symbol></defs></svg>