<svg aria-hidden="true" style="width:0;height:0;position:absolute;overflow:hidden" xmlns="http://www.w3.org/2000/svg"><defs><symbol id="cross" viewBox="0 0 32 32"><path stroke-linejoin="round" stroke-linecap="round" stroke-width="3.2" d="M24 8 8 24M8 8l16 16"/></symbol><symbol id="youtube" viewBox="0 0 32 32"><path d="M24.24 5.989c-1.36-.08-4.16-.16-8.4-.16h-.56c-4.08 0-6.811.08-8.16.24-1.84.16-3.12.64-3.84 1.28-.64.56-1.12 1.6-1.28 2.96-.08.88-.16 2.72-.16 5.52v.4c0 2.64.08 4.48.24 5.36.24 1.28.64 2.24 1.44 2.8.8.64 2.16 1.04 4.08 1.2 1.36.08 4.16.16 8.4.16h.56c4.08 0 6.8-.08 8.16-.24 1.84-.16 3.12-.64 3.84-1.28.64-.56 1.12-1.6 1.28-2.96.08-.88.16-2.72.16-5.52v-.4c0-2.64-.08-4.48-.24-5.36-.24-1.28-.64-2.24-1.44-2.8-.8-.64-2.16-1.04-4.08-1.2zm-3.12 9.84-8.8 5.28v-10.56l8.8 5.28z"/></symbol><symbol id="facebook" viewBox="0 0 32 32"><path d="M19.52 4.64h.949v3.6H19.28c-.48 0-.96 0-1.2.24s-.24.48-.24 1.04v1.28h2.629v3.04H17.84v13.2h-4.08V13.76H11.6v-3.04h2.16V9.68c0-1.76.24-3.04.709-3.6.731-1.04 2.171-1.52 4.331-1.52.24.08.48.08.72.08z"/></symbol><symbol id="instagram" viewBox="0 0 32 32"><path d="M28.709 10.754a9.289 9.289 0 0 0-.594-3.154 6.574 6.574 0 0 0-3.737-3.737 9.611 9.611 0 0 0-3.109-.594c-1.371-.057-1.806-.08-5.28-.08-3.463 0-3.909 0-5.269.08a9.643 9.643 0 0 0-3.109.594A6.574 6.574 0 0 0 3.874 7.6a9.34 9.34 0 0 0-.606 3.109c-.057 1.36-.08 1.794-.08 5.269 0 3.463 0 3.909.08 5.257a9.345 9.345 0 0 0 .606 3.109 6.542 6.542 0 0 0 3.737 3.737 9.665 9.665 0 0 0 3.109.64c1.371.057 1.806.08 5.28.08 3.463 0 3.909 0 5.269-.08a9.643 9.643 0 0 0 3.109-.594 6.574 6.574 0 0 0 3.737-3.737 9.036 9.036 0 0 0 .594-3.109c.069-1.371.091-1.794.091-5.269-.011-3.463-.011-3.909-.091-5.257zm-12.72 11.772c-3.634 0-6.571-2.937-6.571-6.56s2.937-6.56 6.571-6.56c3.623 0 6.571 2.937 6.571 6.56s-2.949 6.56-6.571 6.56zm6.834-11.84a1.524 1.524 0 1 1 0-3.051c.846 0 1.531.686 1.531 1.531s-.686 1.52-1.531 1.52z"/><path d="M19.989 15.966c0 2.217-1.794 4-4 4a4 4 0 1 1 0-8c2.206 0 4 1.794 4 4z"/></symbol><symbol id="burger" viewBox="0 0 64 32"><path stroke-linejoin="round" stroke-linecap="round" stroke-width="4" d="M56 20.66H8M56 10H8"/></symbol><symbol id="human" viewBox="0 0 32 32"><path fill="#7e847f" style="fill:var(--color1,#7e847f)" d="M32 16c0 8.837-7.163 16-16 16S0 24.837 0 16 7.163 0 16 0s16 7.163 16 16z"/><path fill="#f6f6f6" style="fill:var(--color2,#f6f6f6)" d="M25.098 11.634a.79.79 0 0 0-1.111-.099l-2.188 1.838-1.006-2.493a.757.757 0 0 0-.153-.241 2.148 2.148 0 0 0-1.055-1.078 2.158 2.158 0 0 0-.655-.174c-.049-.025-.093-.059-.148-.076l-3.85-1.073a.792.792 0 0 0-.611.083.77.77 0 0 0-.479.448l-1.45 3.728a.791.791 0 0 0 .451 1.022.79.79 0 0 0 1.021-.452l1.225-3.148 1.754.488c-.043.069-.089.134-.124.208l-2.248 4.873c-.032.072-.05.144-.073.218l-2.732 4.58-4.572 1.529a1.168 1.168 0 0 0 1.387 1.88l4.679-1.611c.143-.104.247-.24.326-.387.059-.062.126-.112.171-.189l1.629-2.731 2.891 2.464-3.094 3.486a1.167 1.167 0 0 0 1.747 1.547l3.861-4.349c.12-.134.192-.289.24-.451.029-.088.029-.179.036-.27 0-.046.017-.088.014-.131a1.143 1.143 0 0 0-.401-.849l-2.661-2.269c.192-.183.355-.4.473-.655l1.724-3.733.552 1.471a.742.742 0 0 0 .159.366.754.754 0 0 0 .303.211c.012.006.025.007.039.01a.738.738 0 0 0 .489.024l.003-.001c.024-.006.049-.001.073-.012a.8.8 0 0 0 .311-.226l3.14-2.665c.334-.281.193-.777-.088-1.111zM21.126 9.735a2.201 2.201 0 1 0 0-4.402 2.201 2.201 0 0 0 0 4.402z"/></symbol><symbol id="man" viewBox="0 0 34 32"><path fill="#f6f6f6" style="fill:var(--color1,#f6f6f6)" opacity=".1" d="M32 16c0 8.837-7.163 16-16 16S0 24.837 0 16 7.163 0 16 0s16 7.163 16 16z"/><path fill="#f6f6f6" style="fill:var(--color1,#f6f6f6)" d="M24.729 11.907a.77.77 0 0 0-1.066-.093l-2.099 1.723-.965-2.337a.71.71 0 0 0-.146-.226 2.027 2.027 0 0 0-1.012-1.01 2.129 2.129 0 0 0-.628-.164c-.047-.024-.089-.055-.142-.071l-3.694-1.006a.773.773 0 0 0-.586.078.731.731 0 0 0-.46.42l-1.391 3.495a.736.736 0 0 0 .432.958.765.765 0 0 0 .98-.423l1.175-2.951 1.683.457c-.041.065-.085.126-.119.195l-2.157 4.568c-.031.067-.048.135-.07.205l-2.621 4.294-4.387 1.434a1.08 1.08 0 0 0-.235 1.531 1.139 1.139 0 0 0 1.566.231l4.489-1.511c.137-.098.237-.225.313-.363.056-.058.121-.105.164-.178l1.563-2.56 2.774 2.31-2.968 3.269a1.076 1.076 0 0 0 .095 1.543c.462.402 1.17.36 1.582-.093l3.704-4.078c.115-.126.184-.271.23-.422.028-.082.028-.168.034-.253 0-.043.017-.082.013-.122a1.062 1.062 0 0 0-.385-.796l-2.553-2.127c.184-.171.34-.375.453-.614l1.654-3.499.53 1.379a.683.683 0 0 0 .153.343.73.73 0 0 0 .29.198c.011.005.024.007.038.01a.72.72 0 0 0 .47.023l.003-.001c.023-.005.047-.001.07-.011a.752.752 0 0 0 .298-.212l3.013-2.498c.32-.263.185-.729-.084-1.042zM20.919 10.126c1.166 0 2.111-.924 2.111-2.063S22.085 6 20.919 6c-1.166 0-2.111.924-2.111 2.063s.945 2.063 2.111 2.063z"/></symbol><symbol id="commas" viewBox="0 0 32 32"><path d="M8.201 17.468c1.546-.612 2.785-.452 3.719.481s1.21 2.421.831 4.463c-.292 1.517-.933 2.683-1.925 3.5-.963.788-2.085 1.181-3.369 1.181-1.75 0-2.96-.671-3.631-2.012-.671-1.371-.802-3.208-.394-5.513.233-1.254.612-2.523 1.138-3.806s1.225-2.596 2.1-3.938 2.012-2.508 3.412-3.5 2.946-1.633 4.637-1.925l-.438 4.638c-1.429.292-2.698 1.035-3.806 2.231-1.108 1.167-1.867 2.567-2.275 4.2zm13.169 0c1.546-.612 2.785-.452 3.719.481s1.21 2.421.831 4.463c-.292 1.517-.933 2.683-1.925 3.5-.962.788-2.085 1.181-3.369 1.181-1.75 0-2.96-.671-3.631-2.012-.671-1.371-.802-3.208-.394-5.513.233-1.254.613-2.523 1.137-3.806s1.225-2.596 2.1-3.938 2.013-2.508 3.413-3.5 2.946-1.633 4.637-1.925l-.438 4.638c-1.429.292-2.698 1.035-3.806 2.231-1.108 1.167-1.867 2.567-2.275 4.2z"/></symbol><symbol id="star" viewBox="0 0 34 32"><path d="M14.89 2.282c.737-2.268 3.945-2.268 4.682 0l2.08 6.402a2.463 2.463 0 0 0 2.341 1.701h6.731c2.384 0 3.376 3.051 1.447 4.453l-5.446 3.957a2.46 2.46 0 0 0-.894 2.752l2.08 6.402c.737 2.268-1.859 4.154-3.788 2.752l-5.446-3.957a2.461 2.461 0 0 0-2.894 0l-5.446 3.957c-1.929 1.402-4.525-.484-3.788-2.752l2.08-6.402a2.46 2.46 0 0 0-.894-2.752l-5.446-3.957c-1.929-1.402-.938-4.453 1.447-4.453h6.731a2.462 2.462 0 0 0 2.341-1.701l2.08-6.402z"/></symbol><symbol id="arrow" viewBox="0 0 32 32"><path stroke-linejoin="round" stroke-linecap="round" stroke-width="2.971" d="m15 28 13-13m0 0L15 2m13 13H2"/></symbol><symbol id="heart" viewBox="0 0 32 32"><path stroke-linejoin="round" stroke-linecap="round" stroke-width="2.667" d="M27.788 6.147a7.345 7.345 0 0 0-5.187-2.15 7.33 7.33 0 0 0-5.187 2.15L16.001 7.56l-1.413-1.413a7.333 7.333 0 0 0-10.374 0 7.333 7.333 0 0 0 0 10.374l11.787 11.787 11.787-11.787a7.345 7.345 0 0 0 2.149-5.187 7.33 7.33 0 0 0-2.149-5.187z"/></symbol><symbol id="search" viewBox="0 0 32 32"><path stroke-linejoin="round" stroke-linecap="round" stroke-width="2.667" d="M14.667 25.333c5.891 0 10.667-4.776 10.667-10.667S20.558 3.999 14.667 3.999 4 8.775 4 14.666s4.776 10.667 10.667 10.667zM28 28l-5.8-5.8"/></symbol></defs><defs><symbol id="trash" viewBox="0 0 32 32"><path stroke-linejoin="round" stroke-linecap="round" stroke-width="2.6" d="M21.333 8V6.933c0-1.493 0-2.24-.291-2.811a2.666 2.666 0 0 0-1.165-1.165c-.57-.291-1.317-.291-2.811-.291h-2.133c-1.493 0-2.24 0-2.811.291-.502.256-.91.664-1.165 1.165-.291.57-.291 1.317-.291 2.811V8m2.667 7.333V22m5.334-6.667V22M4 8h24m-2.667 0v14.933c0 2.24 0 3.36-.436 4.216a3.996 3.996 0 0 1-1.748 1.748c-.856.436-1.976.436-4.216.436h-5.867c-2.24 0-3.36 0-4.216-.436a3.996 3.996 0 0 1-1.748-1.748c-.436-.856-.436-1.976-.436-4.216V8" stroke="#000" fill="#fff"/></symbol></defs></svg>