<svg aria-hidden="true" style="position: absolute; width: 0; height: 0; overflow: hidden;" version="1.1" xmlns="http://www.w3.org/2000/svg" xmlns:xlink="http://www.w3.org/1999/xlink">
<defs>
<symbol id="cross" viewBox="0 0 32 32">
<path stroke-linejoin="round" stroke-linecap="round" stroke-miterlimit="4" stroke-width="3.2" d="M24 8l-16 16"></path>
<path stroke-linejoin="round" stroke-linecap="round" stroke-miterlimit="4" stroke-width="3.2" d="M8 8l16 16"></path>
</symbol>
<symbol id="youtube" viewBox="0 0 32 32">
<path d="M24.24 5.989c-1.36-0.080-4.16-0.16-8.4-0.16h-0.56c-4.080 0-6.811 0.080-8.16 0.24-1.84 0.16-3.12 0.64-3.84 1.28-0.64 0.56-1.12 1.6-1.28 2.96-0.080 0.88-0.16 2.72-0.16 5.52v0.4c0 2.64 0.080 4.48 0.24 5.36 0.24 1.28 0.64 2.24 1.44 2.8 0.8 0.64 2.16 1.040 4.080 1.2 1.36 0.080 4.16 0.16 8.4 0.16h0.56c4.080 0 6.8-0.080 8.16-0.24 1.84-0.16 3.12-0.64 3.84-1.28 0.64-0.56 1.12-1.6 1.28-2.96 0.080-0.88 0.16-2.72 0.16-5.52v-0.4c0-2.64-0.080-4.48-0.24-5.36-0.24-1.28-0.64-2.24-1.44-2.8-0.8-0.64-2.16-1.040-4.080-1.2zM21.12 15.829l-8.8 5.28v-10.56l8.8 5.28z"></path>
</symbol>
<symbol id="facebook" viewBox="0 0 32 32">
<path d="M19.52 4.64c0.24 0 0.48 0 0.949 0v3.6c-0.24 0-0.709 0-1.189 0s-0.96 0-1.2 0.24c-0.24 0.24-0.24 0.48-0.24 1.040 0 0.48 0 0.8 0 1.28h2.629v3.040h-2.629v13.2h-4.080v-13.28h-2.16v-3.040h2.16v-1.040c0-1.76 0.24-3.040 0.709-3.6 0.731-1.040 2.171-1.52 4.331-1.52 0.24 0.080 0.48 0.080 0.72 0.080z"></path>
</symbol>
<symbol id="instagram" viewBox="0 0 32 32">
<path d="M28.709 10.754c-0.011-1.074-0.217-2.149-0.594-3.154-0.663-1.714-2.023-3.063-3.737-3.737-0.994-0.366-2.046-0.571-3.109-0.594-1.371-0.057-1.806-0.080-5.28-0.080-3.463 0-3.909 0-5.269 0.080-1.063 0.023-2.114 0.229-3.109 0.594-1.714 0.674-3.074 2.023-3.737 3.737-0.377 0.994-0.583 2.046-0.606 3.109-0.057 1.36-0.080 1.794-0.080 5.269 0 3.463 0 3.909 0.080 5.257 0.023 1.063 0.229 2.114 0.606 3.109 0.663 1.714 2.023 3.074 3.737 3.737 0.994 0.377 2.046 0.606 3.109 0.64 1.371 0.057 1.806 0.080 5.28 0.080 3.463 0 3.909 0 5.269-0.080 1.063-0.023 2.114-0.229 3.109-0.594 1.714-0.674 3.074-2.023 3.737-3.737 0.377-0.994 0.583-2.046 0.594-3.109 0.069-1.371 0.091-1.794 0.091-5.269-0.011-3.463-0.011-3.909-0.091-5.257zM15.989 22.526c-3.634 0-6.571-2.937-6.571-6.56s2.937-6.56 6.571-6.56c3.623 0 6.571 2.937 6.571 6.56s-2.949 6.56-6.571 6.56zM22.823 10.686c-0.857 0-1.543-0.674-1.543-1.52s0.686-1.531 1.543-1.531c0.846 0 1.531 0.686 1.531 1.531s-0.686 1.52-1.531 1.52z"></path>
<path d="M19.989 15.966c0 2.217-1.794 4-4 4-2.217 0-4.011-1.783-4.011-4 0-2.206 1.794-4 4.011-4 2.206 0 4 1.794 4 4z"></path>
</symbol>
<symbol id="burger" viewBox="0 0 64 32">
<path stroke-linejoin="round" stroke-linecap="round" stroke-miterlimit="4" stroke-width="4" d="M56 20.66h-48"></path>
<path stroke-linejoin="round" stroke-linecap="round" stroke-miterlimit="4" stroke-width="4" d="M56 10h-48"></path>
</symbol>
</defs>
</svg>
